<?xml version="1.0" encoding="UTF-8"?>
<svg id="Layer_2" data-name="Perpetual Logo Dark" xmlns="http://www.w3.org/2000/svg" viewBox="0 0 1140.5 136.32">
  <defs>
    <style>
      .cls-1 {
        fill: #ffffff;
      }

      .cls-2 {
        fill: #f33d1f;
      }

      .cls-3 {
        fill: #fbb900;
      }

      .cls-4 {
        fill: #ffffff;
      }
    </style>
  </defs>
  <path class="cls-1" d="M6.96,134.31c-3.84,0-6.95-3.11-6.95-6.95v-59.12c0-3.84,3.11-6.95,6.95-6.95s6.95,3.11,6.95,6.95v59.12c0,3.84-3.11,6.95-6.95,6.95Z"/>
  <path class="cls-3" d="M32.86,101.09C14.75,101.09.02,86.36.02,68.25c0-3.84,3.11-6.95,6.95-6.95s6.95,3.11,6.95,6.95c0,10.45,8.5,18.95,18.95,18.95,8.43,0,15.92-5.65,18.23-13.74,1.05-3.69,4.9-5.83,8.58-4.77,3.69,1.05,5.83,4.9,4.77,8.58-4,14.03-16.99,23.82-31.59,23.82Z"/>
  <path class="cls-1" d="M8.87,84.96c-2.74,0-5.33-1.63-6.43-4.32-3.77-9.24-2.15-17.38-1.73-19.1,3.15-15.15,16.65-26.13,32.16-26.13,18.11,0,32.84,14.73,32.84,32.84,0,2.36-.25,4.71-.75,7-.81,3.75-4.51,6.12-8.26,5.31-3.75-.82-6.13-4.51-5.31-8.26.29-1.32.43-2.68.43-4.05,0-10.45-8.5-18.95-18.95-18.95-8.98,0-16.79,6.37-18.57,15.16-.03.14-.06.27-.09.4h0s-1.15,5,1.1,10.52c1.45,3.55-.25,7.61-3.8,9.06-.86.35-1.75.52-2.63.52Z"/>
  <path class="cls-2" d="M32.86,101.09C14.75,101.09.02,86.36.02,68.25c0-3.84,3.11-6.95,6.95-6.95s6.95,3.11,6.95,6.95c0,10.45,8.5,18.95,18.95,18.95,3.84,0,6.95,3.11,6.95,6.95s-3.11,6.95-6.95,6.95Z"/>
  <path class="cls-1" d="M123.92,44.08c6.01,5.72,8.95,11.88,8.95,18.78,0,5.87-4.11,10.71-12.47,10.71h-32.26c-1.71,0-2.81,1.84-1.99,3.35,3.16,5.83,9.32,9.41,15.92,9.41s11.59-3.23,13.49-5.72l1.32-1.91h11.71c1.7,0,2.81,1.82,1.99,3.31-.54.99-1.34,2.28-2.56,4.02-1.61,2.35-3.52,4.4-5.57,6.31-4.11,3.52-11.88,7.19-20.54,7.19s-16.43-3.08-22.74-9.24c-6.16-6.31-9.24-13.79-9.24-22.74s3.08-16.28,9.39-22.59c6.31-6.31,13.79-9.39,22.74-9.39s15.84,2.79,21.86,8.51ZM115.75,60.95c1.66,0,2.81-1.77,2.04-3.24-2.56-4.9-8.6-8.79-15.73-8.79s-12.84,3.36-15.74,8.65c-.83,1.52.24,3.38,1.97,3.38h27.46Z"/>
  <path class="cls-1" d="M149.73,98.79h-8.95c-1.38,0-2.49-1.12-2.49-2.49v-34.76c0-18.04,10.12-25.23,23.76-25.23h.88c1.38,0,2.49,1.12,2.49,2.49v11h-2.64c-7.04,0-10.56,3.96-10.56,11.73v34.76c0,1.38-1.12,2.49-2.49,2.49Z"/>
  <path class="cls-1" d="M289.07,44.08c6.01,5.72,8.95,11.88,8.95,18.78,0,5.87-4.11,10.71-12.47,10.71h-33.71c-.97,0-1.62,1-1.24,1.9,2.87,6.68,9.5,10.86,16.62,10.86,6.31,0,11.59-3.23,13.49-5.72l1.32-1.91h13.18c.97,0,1.62.99,1.23,1.88-.48,1.1-1.36,2.71-3.27,5.45-1.61,2.35-3.52,4.4-5.57,6.31-4.11,3.52-11.88,7.19-20.54,7.19s-16.43-3.08-22.74-9.24c-6.16-6.31-9.24-13.79-9.24-22.74s3.08-16.28,9.39-22.59c6.31-6.31,13.79-9.39,22.74-9.39s15.84,2.79,21.86,8.51ZM282.31,60.95c.93,0,1.6-.93,1.28-1.81-2.05-5.55-8.55-10.22-16.37-10.22s-13.81,4-16.46,10.12c-.39.9.26,1.91,1.23,1.91h30.32Z"/>
  <path class="cls-1" d="M604.77,44.08c6.01,5.72,8.95,11.88,8.95,18.78,0,5.87-4.11,10.71-12.47,10.71h-33.71c-.97,0-1.62,1-1.24,1.9,2.87,6.68,9.5,10.86,16.62,10.86,6.31,0,11.59-3.23,13.49-5.72l1.32-1.91h13.18c.97,0,1.62.99,1.23,1.88-.48,1.1-1.36,2.71-3.27,5.45-1.61,2.35-3.52,4.4-5.57,6.31-4.11,3.52-11.88,7.19-20.54,7.19s-16.43-3.08-22.74-9.24c-6.16-6.31-9.24-13.79-9.24-22.74s3.08-16.28,9.39-22.59c6.31-6.31,13.79-9.39,22.74-9.39s15.84,2.79,21.86,8.51ZM598,60.95c.93,0,1.6-.93,1.28-1.81-2.05-5.55-8.55-10.22-16.37-10.22s-13.81,4-16.46,10.12c-.39.9.26,1.91,1.23,1.91h30.32Z"/>
  <path class="cls-1" d="M1087.11,44.08c6.01,5.72,8.95,11.88,8.95,18.78,0,5.87-4.11,10.71-12.47,10.71h-33.71c-.97,0-1.62,1-1.24,1.9,2.87,6.68,9.5,10.86,16.62,10.86,6.31,0,11.59-3.23,13.49-5.72l1.32-1.91h13.18c.97,0,1.62.99,1.23,1.88-.48,1.1-1.36,2.71-3.27,5.45-1.61,2.35-3.52,4.4-5.57,6.31-4.11,3.52-11.88,7.19-20.54,7.19s-16.43-3.08-22.74-9.24c-6.16-6.31-9.24-13.79-9.24-22.74s3.08-16.28,9.39-22.59c6.31-6.31,13.79-9.39,22.74-9.39s15.84,2.79,21.86,8.51ZM1080.35,60.95c.93,0,1.6-.93,1.28-1.81-2.05-5.55-8.55-10.22-16.37-10.22s-13.81,4-16.46,10.12c-.39.9.26,1.91,1.23,1.91h30.32Z"/>
  <path class="cls-1" d="M330.58,85.3v13.49h-2.93c-14.23,0-24.2-7.04-24.2-25.08V11.76c0-1.83,1.49-3.32,3.32-3.32h7.29c1.83,0,3.32,1.49,3.32,3.32v21.23c0,1.83,1.49,3.32,3.32,3.32h5.39c1.83,0,3.32,1.49,3.32,3.32v6.85c0,1.83-1.49,3.32-3.32,3.32h-5.39c-1.83,0-3.32,1.49-3.32,3.32v20.59c0,7.77,3.37,11.59,10.27,11.59h2.93Z"/>
  <path class="cls-1" d="M546.96,85.3v13.49h-2.93c-14.23,0-24.2-7.04-24.2-25.08V11.76c0-1.83,1.49-3.32,3.32-3.32h7.29c1.83,0,3.32,1.49,3.32,3.32v21.23c0,1.83,1.49,3.32,3.32,3.32h5.39c1.83,0,3.32,1.49,3.32,3.32v6.85c0,1.83-1.49,3.32-3.32,3.32h-5.39c-1.83,0-3.32,1.49-3.32,3.32v20.59c0,7.77,3.37,11.59,10.27,11.59h2.93Z"/>
  <path class="cls-1" d="M384.41,36.31h0c3.89,0,7.04,3.15,7.04,7.04v26.7c0,9.83-2.64,17.31-7.92,22.15-5.28,4.84-11.59,7.33-18.78,7.33s-13.49-2.35-18.78-7.19c-5.13-4.84-7.77-12.32-7.77-22.3v-26.7c0-3.89,3.15-7.04,7.04-7.04h0c3.89,0,7.04,3.15,7.04,7.04v26.7c0,10.56,4.84,15.99,12.47,15.99s12.62-5.57,12.62-15.99v-26.7c0-3.89,3.15-7.04,7.04-7.04Z"/>
  <path class="cls-1" d="M452.03,98.79c-2.75,0-4.99-2.23-4.99-4.99h0c-.44.44-1.17.88-2.2,1.61-1.76,1.17-8.95,4.11-15.84,4.11-9.09,0-16.72-3.08-22.88-9.24-6.16-6.31-9.24-13.79-9.24-22.74s3.08-16.28,9.24-22.59c6.31-6.31,13.94-9.39,22.88-9.39s16.28,2.93,22.59,8.65c6.31,5.72,9.53,13.64,9.53,23.76v25.82c0,2.75-2.23,4.99-4.99,4.99h-4.11ZM429,86.03c10.12,0,18.04-7.77,18.04-18.48s-7.63-18.48-18.04-18.48-18.04,7.92-18.04,18.48,7.92,18.48,18.04,18.48Z"/>
  <path class="cls-1" d="M468.02,91.75V7.56c0-3.89,3.15-7.04,7.04-7.04h0c3.89,0,7.04,3.15,7.04,7.04v84.19c0,3.89-3.15,7.04-7.04,7.04h0c-3.89,0-7.04-3.15-7.04-7.04Z"/>
  <path class="cls-1" d="M854.43,91.75V7.56c0-3.89,3.15-7.04,7.04-7.04h0c3.89,0,7.04,3.15,7.04,7.04v84.19c0,3.89-3.15,7.04-7.04,7.04h0c-3.89,0-7.04-3.15-7.04-7.04Z"/>
  <path class="cls-4" d="M198.58,101.09c-18.11,0-32.84-14.73-32.84-32.84,0-3.84,3.11-6.95,6.95-6.95s6.95,3.11,6.95,6.95c0,10.45,8.5,18.95,18.95,18.95,8.43,0,15.92-5.65,18.23-13.74,1.05-3.69,4.9-5.83,8.58-4.77,3.69,1.05,5.83,4.9,4.77,8.58-4,14.03-16.99,23.82-31.59,23.82Z"/>
  <path class="cls-1" d="M174.59,84.96c-2.74,0-5.33-1.63-6.43-4.32-3.77-9.24-2.15-17.38-1.73-19.1,3.15-15.15,16.65-26.13,32.16-26.13,18.11,0,32.84,14.73,32.84,32.84,0,2.36-.25,4.71-.75,7-.81,3.75-4.51,6.12-8.26,5.31-3.75-.82-6.13-4.51-5.31-8.26.29-1.32.43-2.68.43-4.05,0-10.45-8.5-18.95-18.95-18.95-8.98,0-16.79,6.37-18.57,15.16-.03.14-.06.27-.09.4h0s-1.15,5,1.1,10.52c1.45,3.55-.25,7.61-3.8,9.06-.86.35-1.75.52-2.63.52Z"/>
  <path class="cls-4" d="M172.69,134.31c-3.84,0-6.95-3.11-6.95-6.95v-59.12c0-3.84,3.11-6.95,6.95-6.95s6.95,3.11,6.95,6.95v59.12c0,3.84-3.11,6.95-6.95,6.95Z"/>
  <path class="cls-4" d="M198.58,101.09c-18.11,0-32.84-14.73-32.84-32.84,0-3.84,3.11-6.95,6.95-6.95s6.95,3.11,6.95,6.95c0,10.45,8.5,18.95,18.95,18.95,3.84,0,6.95,3.11,6.95,6.95s-3.11,6.95-6.95,6.95Z"/>
  <path class="cls-1" d="M661.08,36.02v13.48h-7.18c-13.92,0-21.97,6.59-21.97,17.72s8.06,17.72,21.97,17.72h7.18v13.48h-7.18c-11.42,0-20.36-2.93-26.66-8.79-6.3-6-9.37-13.48-9.37-22.41s3.08-16.4,9.37-22.26c6.3-6,15.23-8.93,26.66-8.93h7.18Z"/>
  <path class="cls-1" d="M681.22,0v39.25c4.1-2.78,8.79-4.25,13.91-4.25,6.88,0,12.89,2.49,17.72,7.62,4.98,4.98,7.47,12.3,7.47,21.82v33.69h-14.06v-33.69c0-10.55-4.98-15.97-12.6-15.97s-12.45,5.27-12.45,15.97v33.69h-14.06V0h14.06Z"/>
  <path class="cls-1" d="M739.97,98.78h-14.06v-33.69c0-9.96,2.64-17.28,7.76-22.12,5.27-4.83,11.57-7.32,18.75-7.32s13.47,2.49,18.75,7.32c5.27,4.83,7.91,12.3,7.91,22.12v33.69h-14.06v-33.69c0-10.4-4.98-15.97-12.6-15.97s-12.45,5.42-12.45,15.97v33.69Z"/>
  <path class="cls-1" d="M794.16,45.04c6.3-6.3,13.77-9.37,22.7-9.37s16.26,3.08,22.56,9.37,9.37,13.77,9.37,22.56-3.08,16.41-9.37,22.7c-6.3,6.15-13.77,9.23-22.56,9.23s-16.41-3.08-22.7-9.23c-6.3-6.3-9.37-13.77-9.37-22.7s3.08-16.26,9.37-22.56ZM798.84,67.6c0,5.42,1.76,9.81,5.13,13.33,3.52,3.37,7.76,5.13,12.89,5.13s9.37-1.76,12.74-5.13c3.52-3.52,5.27-7.91,5.27-13.33s-1.76-9.81-5.27-13.18c-3.37-3.52-7.62-5.27-12.74-5.27s-9.37,1.76-12.89,5.27c-3.37,3.37-5.13,7.76-5.13,13.18Z"/>
  <path class="cls-1" d="M882.83,45.04c6.3-6.3,13.77-9.37,22.7-9.37s16.26,3.08,22.56,9.37,9.37,13.77,9.37,22.56-3.08,16.41-9.37,22.7c-6.3,6.15-13.77,9.23-22.56,9.23s-16.41-3.08-22.7-9.23c-6.3-6.3-9.37-13.77-9.37-22.7s3.08-16.26,9.37-22.56ZM887.52,67.6c0,5.42,1.76,9.81,5.13,13.33,3.52,3.37,7.76,5.13,12.89,5.13s9.37-1.76,12.74-5.13c3.52-3.52,5.27-7.91,5.27-13.33s-1.76-9.81-5.27-13.18c-3.37-3.52-7.62-5.27-12.74-5.27s-9.37,1.76-12.89,5.27c-3.37,3.37-5.13,7.76-5.13,13.18Z"/>
  <path class="cls-1" d="M961,107.61c.44,9.81,5.86,15.96,15.67,15.96,10.4,0,15.67-6.74,15.67-17.43v-11.57c-.44.44-1.17.88-2.2,1.61-1.76,1.17-8.93,4.1-15.82,4.1-9.08,0-16.7-3.08-22.85-9.23-6.15-6.3-9.23-13.77-9.23-22.7s3.08-16.26,9.23-22.56c6.3-6.3,13.91-9.37,22.85-9.37s16.26,2.93,22.56,8.64c6.3,5.71,9.52,13.62,9.52,23.73v37.35c0,9.23-2.78,16.55-8.5,21.97-5.57,5.42-12.6,8.2-21.24,8.2s-15.23-2.64-20.8-7.76c-5.57-5.13-8.5-12.01-8.93-20.95h14.06ZM974.33,86.81c10.11,0,18.02-7.76,18.02-18.46s-7.62-18.46-18.02-18.46-18.02,7.91-18.02,18.46,7.91,18.46,18.02,18.46Z"/>
  <path class="cls-1" d="M1013.85,11.79c3.37-3.37,8.93-3.37,12.3,0,3.37,3.37,3.37,8.93,0,12.3s-8.93,3.37-12.3,0-3.37-8.93,0-12.3ZM1012.97,99.53v-62.4h14.06v62.4h-14.06Z"/>
  <path class="cls-1" d="M1117.95,99.15c-5.86,0-12.3-1.76-15.23-3.37l-2.2-1.17v-13.62c5.13,3.08,10.84,4.69,17.43,4.69,5.71,0,8.5-1.9,8.5-5.86,0-9.67-26.66-6.15-26.66-26.22,0-11.28,9.23-18.31,21.97-18.31,6.01,0,12.01,1.61,14.35,2.93l1.76,1.03v13.04c-4.25-2.34-9.67-3.52-16.11-3.52-5.27,0-7.91,1.61-7.91,4.83s4.1,5.13,9.37,7.03c7.62,2.2,17.43,6.88,17.28,19.19,0,11.86-8.93,19.33-22.56,19.33Z"/>
</svg>